# Blender v2.76 (sub 0) OBJ File: ''
# www.blender.org
mtllib TestChunk2.mtl
o Plane.001
v -0.827555 -8.000000 16.000000
v -0.827555 -8.000000 -16.000000
v -0.827557 8.000000 0.000000
v -0.827557 8.000000 2.000000
v -0.827557 8.000000 4.000000
v -0.827555 -8.000000 14.000000
v -0.827555 -8.000000 12.000000
v -0.827555 -8.000000 10.000000
v -0.827555 -8.000000 8.000000
v -0.827555 -8.000000 6.000000
v -0.827555 -8.000000 4.000000
v -0.827555 -8.000000 2.000000
v -0.827555 -8.000000 0.000000
v -0.827555 -8.000000 -2.000000
v -0.827555 -8.000000 -4.000000
v -0.827555 -8.000000 -6.000000
v -0.827555 -8.000000 -8.000000
v -0.827555 -8.000000 -10.000000
v -0.827555 -8.000000 -12.000000
v -0.827555 -8.000000 -14.000000
v -0.827555 -6.000000 16.000000
v -0.827555 -6.000000 -16.000000
v -0.827555 -6.000000 14.000000
v -0.827555 -6.000000 12.000000
v -0.827556 -4.000000 12.000000
v -0.827555 -6.000000 10.000000
v -0.827556 -4.000000 10.000000
v -0.827555 -6.000000 8.000000
v -0.827556 -4.000000 8.000000
v -0.827556 -2.000000 8.000000
v -0.827555 -6.000000 6.000000
v -0.827556 -4.000000 6.000000
v -0.827556 -2.000000 6.000000
v -0.827555 -6.000000 4.000000
v -0.827556 -4.000000 4.000000
v -0.827556 -2.000000 4.000000
v -0.827556 0.000000 4.000000
v -0.827556 2.000000 4.000000
v -0.827556 4.000000 4.000000
v -0.827556 6.000000 4.000000
v -0.827555 -6.000000 2.000000
v -0.827556 -4.000000 2.000000
v -0.827556 -2.000000 2.000000
v -0.827556 0.000000 2.000000
v -0.827556 2.000000 2.000000
v -0.827556 4.000000 2.000000
v -0.827556 6.000000 2.000000
v -0.827555 -6.000000 0.000000
v -0.827556 -4.000000 0.000000
v -0.827556 -2.000000 0.000000
v -0.827556 0.000000 0.000000
v -0.827556 2.000000 0.000000
v -0.827556 4.000000 0.000000
v -0.827556 6.000000 0.000000
v -0.827555 -6.000000 -2.000000
v -0.827555 -6.000000 -4.000000
v -0.827555 -6.000000 -6.000000
v -0.827556 -4.000000 -6.000000
v -0.827556 -2.000000 -6.000000
v -0.827555 -6.000000 -8.000000
v -0.827556 -4.000000 -8.000000
v -0.827556 -2.000000 -8.000000
v -0.827555 -6.000000 -10.000000
v -0.827555 -6.000000 -12.000000
v -0.827555 -6.000000 -14.000000
v 0.172445 -6.000000 16.000000
v 0.172445 -8.000000 16.000000
v 0.172445 -8.000000 -14.000000
v 0.172445 -8.000000 -16.000000
v 0.172443 8.000000 0.000000
v 0.172443 8.000000 2.000000
v 0.172443 8.000000 4.000000
v 0.172445 -8.000000 14.000000
v 0.172445 -8.000000 12.000000
v 0.172445 -8.000000 10.000000
v 0.172445 -8.000000 8.000000
v 0.172445 -8.000000 6.000000
v 0.172445 -8.000000 4.000000
v 0.172445 -8.000000 2.000000
v 0.172445 -8.000000 0.000000
v 0.172445 -8.000000 -2.000000
v 0.172445 -8.000000 -4.000000
v 0.172445 -8.000000 -6.000000
v 0.172445 -8.000000 -8.000000
v 0.172445 -8.000000 -10.000000
v 0.172445 -8.000000 -12.000000
v 0.172444 6.000000 4.000000
v 0.172444 6.000000 2.000000
v 0.172444 6.000000 0.000000
v 0.172445 -6.000000 -16.000000
v 0.172445 -6.000000 14.000000
v 0.172445 -6.000000 12.000000
v 0.172444 -4.000000 12.000000
v 0.172445 -6.000000 10.000000
v 0.172444 -4.000000 10.000000
v 0.172445 -6.000000 8.000000
v 0.172444 -4.000000 8.000000
v 0.172444 -2.000000 8.000000
v 0.172445 -6.000000 6.000000
v 0.172444 -4.000000 6.000000
v 0.172444 -2.000000 6.000000
v 0.172445 -6.000000 4.000000
v 0.172444 -4.000000 4.000000
v 0.172444 -2.000000 4.000000
v 0.172444 0.000000 4.000000
v 0.172444 2.000000 4.000000
v 0.172444 4.000000 4.000000
v 0.172445 -6.000000 2.000000
v 0.172444 -4.000000 2.000000
v 0.172444 -2.000000 2.000000
v 0.172444 0.000000 2.000000
v 0.172444 2.000000 2.000000
v 0.172444 4.000000 2.000000
v 0.172445 -6.000000 0.000000
v 0.172444 -4.000000 0.000000
v 0.172444 -2.000000 0.000000
v 0.172444 0.000000 0.000000
v 0.172444 2.000000 0.000000
v 0.172444 4.000000 0.000000
v 0.172445 -6.000000 -2.000000
v 0.172445 -6.000000 -4.000000
v 0.172445 -6.000000 -6.000000
v 0.172444 -4.000000 -6.000000
v 0.172444 -2.000000 -6.000000
v 0.172445 -6.000000 -8.000000
v 0.172444 -4.000000 -8.000000
v 0.172444 -2.000000 -8.000000
v 0.172445 -6.000000 -10.000000
v 0.172445 -6.000000 -12.000000
v 0.172445 -6.000000 -14.000000
vn -1.000000 -0.000000 0.000000
vn 1.000000 0.000000 0.000000
vn 0.000000 1.000000 0.000000
vn 0.000000 0.000000 -1.000000
vn 0.000000 0.000000 1.000000
vn 0.000000 -1.000000 0.000000
usemtl None
s off
f 65//1 22//1 2//1 20//1
f 21//1 23//1 6//1 1//1
f 23//1 24//1 7//1 6//1
f 24//1 26//1 8//1 7//1
f 26//1 28//1 9//1 8//1
f 28//1 31//1 10//1 9//1
f 31//1 34//1 11//1 10//1
f 34//1 41//1 12//1 11//1
f 41//1 48//1 13//1 12//1
f 48//1 55//1 14//1 13//1
f 55//1 56//1 15//1 14//1
f 56//1 57//1 16//1 15//1
f 57//1 60//1 17//1 16//1
f 60//1 63//1 18//1 17//1
f 63//1 64//1 19//1 18//1
f 64//1 65//1 20//1 19//1
f 59//1 62//1 61//1 58//1
f 4//1 3//1 54//1 47//1
f 47//1 54//1 53//1 46//1
f 46//1 53//1 52//1 45//1
f 45//1 52//1 51//1 44//1
f 44//1 51//1 50//1 43//1
f 43//1 50//1 49//1 42//1
f 42//1 49//1 48//1 41//1
f 5//1 4//1 47//1 40//1
f 40//1 47//1 46//1 39//1
f 39//1 46//1 45//1 38//1
f 38//1 45//1 44//1 37//1
f 37//1 44//1 43//1 36//1
f 36//1 43//1 42//1 35//1
f 35//1 42//1 41//1 34//1
f 33//1 36//1 35//1 32//1
f 32//1 35//1 34//1 31//1
f 30//1 33//1 32//1 29//1
f 29//1 32//1 31//1 28//1
f 27//1 29//1 28//1 26//1
f 25//1 27//1 26//1 24//1
f 130//2 68//2 69//2 90//2
f 66//2 67//2 73//2 91//2
f 91//2 73//2 74//2 92//2
f 92//2 74//2 75//2 94//2
f 94//2 75//2 76//2 96//2
f 96//2 76//2 77//2 99//2
f 99//2 77//2 78//2 102//2
f 102//2 78//2 79//2 108//2
f 108//2 79//2 80//2 114//2
f 114//2 80//2 81//2 120//2
f 120//2 81//2 82//2 121//2
f 121//2 82//2 83//2 122//2
f 122//2 83//2 84//2 125//2
f 125//2 84//2 85//2 128//2
f 128//2 85//2 86//2 129//2
f 129//2 86//2 68//2 130//2
f 124//2 123//2 126//2 127//2
f 71//2 88//2 89//2 70//2
f 88//2 113//2 119//2 89//2
f 113//2 112//2 118//2 119//2
f 112//2 111//2 117//2 118//2
f 111//2 110//2 116//2 117//2
f 110//2 109//2 115//2 116//2
f 109//2 108//2 114//2 115//2
f 72//2 87//2 88//2 71//2
f 87//2 107//2 113//2 88//2
f 107//2 106//2 112//2 113//2
f 106//2 105//2 111//2 112//2
f 105//2 104//2 110//2 111//2
f 104//2 103//2 109//2 110//2
f 103//2 102//2 108//2 109//2
f 101//2 100//2 103//2 104//2
f 100//2 99//2 102//2 103//2
f 98//2 97//2 100//2 101//2
f 97//2 96//2 99//2 100//2
f 95//2 94//2 96//2 97//2
f 93//2 92//2 94//2 95//2
f 23//3 21//3 66//3 91//3
f 55//3 48//3 114//3 120//3
f 22//3 65//3 130//3 90//3
f 54//4 3//4 70//4 89//4
f 2//4 22//4 90//4 69//4
f 48//4 49//4 115//4 114//4
f 49//4 50//4 116//4 115//4
f 50//4 51//4 117//4 116//4
f 25//5 24//5 92//5 93//5
f 51//4 52//4 118//4 117//4
f 21//5 1//5 67//5 66//5
f 52//4 53//4 119//4 118//4
f 20//6 2//6 69//6 68//6
f 53//4 54//4 89//4 119//4
f 3//3 4//3 71//3 70//3
f 4//3 5//3 72//3 71//3
f 30//5 29//5 97//5 98//5
f 1//6 6//6 73//6 67//6
f 6//6 7//6 74//6 73//6
f 59//5 58//5 123//5 124//5
f 7//6 8//6 75//6 74//6
f 8//6 9//6 76//6 75//6
f 61//4 62//4 127//4 126//4
f 9//6 10//6 77//6 76//6
f 36//3 33//3 101//3 104//3
f 10//6 11//6 78//6 77//6
f 11//6 12//6 79//6 78//6
f 37//5 36//5 104//5 105//5
f 12//6 13//6 80//6 79//6
f 33//3 30//3 98//3 101//3
f 65//3 64//3 129//3 130//3
f 38//5 37//5 105//5 106//5
f 13//6 14//6 81//6 80//6
f 64//3 63//3 128//3 129//3
f 39//5 38//5 106//5 107//5
f 14//6 15//6 82//6 81//6
f 63//3 60//3 125//3 128//3
f 40//5 39//5 107//5 87//5
f 15//6 16//6 83//6 82//6
f 29//3 27//3 95//3 97//3
f 62//3 59//3 124//3 127//3
f 16//6 17//6 84//6 83//6
f 58//6 61//6 126//6 123//6
f 17//6 18//6 85//6 84//6
f 27//3 25//3 93//3 95//3
f 60//3 57//3 122//3 125//3
f 18//6 19//6 86//6 85//6
f 57//3 56//3 121//3 122//3
f 19//6 20//6 68//6 86//6
f 24//3 23//3 91//3 92//3
f 56//3 55//3 120//3 121//3
f 5//5 40//5 87//5 72//5
o Plane
v 0.000001 -8.000000 16.000000
v 0.000001 -8.000000 -16.000000
v -0.000001 8.000000 -12.000000
v -0.000001 8.000000 -10.000000
v -0.000001 8.000000 -8.000000
v 0.000001 -8.000000 14.000000
v 0.000001 -8.000000 12.000000
v 0.000001 -8.000000 10.000000
v 0.000001 -8.000000 8.000000
v 0.000001 -8.000000 6.000000
v 0.000001 -8.000000 4.000000
v 0.000001 -8.000000 2.000000
v 0.000001 -8.000000 0.000000
v 0.000001 -8.000000 -2.000000
v 0.000001 -8.000000 -4.000000
v 0.000001 -8.000000 -6.000000
v 0.000001 -8.000000 -8.000000
v 0.000001 -8.000000 -10.000000
v 0.000001 -8.000000 -12.000000
v 0.000001 -8.000000 -14.000000
v 0.000000 -6.000000 16.000000
v 0.000000 -6.000000 -16.000000
v 0.000000 -6.000000 14.000000
v 0.000000 -6.000000 12.000000
v 0.000000 -4.000000 12.000000
v 0.000000 -6.000000 10.000000
v 0.000000 -4.000000 10.000000
v 0.000000 -6.000000 8.000000
v 0.000000 -4.000000 8.000000
v 0.000000 -2.000000 8.000000
v 0.000000 -6.000000 6.000000
v 0.000000 -4.000000 6.000000
v 0.000000 -2.000000 6.000000
v 0.000000 -6.000000 4.000000
v 0.000000 -4.000000 4.000000
v 0.000000 -2.000000 4.000000
v 0.000000 -6.000000 2.000000
v 0.000000 -6.000000 0.000000
v 0.000000 -6.000000 -2.000000
v 0.000000 -6.000000 -4.000000
v 0.000000 -6.000000 -6.000000
v 0.000000 -6.000000 -8.000000
v 0.000000 -4.000000 -8.000000
v 0.000000 -2.000000 -8.000000
v 0.000000 0.000000 -8.000000
v -0.000000 2.000000 -8.000000
v -0.000000 4.000000 -8.000000
v -0.000000 6.000000 -8.000000
v 0.000000 -6.000000 -10.000000
v 0.000000 -4.000000 -10.000000
v 0.000000 -2.000000 -10.000000
v 0.000000 0.000000 -10.000000
v -0.000000 2.000000 -10.000000
v -0.000000 4.000000 -10.000000
v -0.000000 6.000000 -10.000000
v 0.000000 -6.000000 -12.000000
v 0.000000 -4.000000 -12.000000
v 0.000000 -2.000000 -12.000000
v 0.000000 0.000000 -12.000000
v -0.000000 2.000000 -12.000000
v -0.000000 4.000000 -12.000000
v -0.000000 6.000000 -12.000000
v 0.000000 -6.000000 -14.000000
v 1.000000 -6.000000 16.000000
v 1.000001 -8.000000 16.000000
v 1.000001 -8.000000 -14.000000
v 1.000001 -8.000000 -16.000000
v 0.999999 8.000000 -12.000000
v 0.999999 8.000000 -10.000000
v 0.999999 8.000000 -8.000000
v 1.000001 -8.000000 14.000000
v 1.000001 -8.000000 12.000000
v 1.000001 -8.000000 10.000000
v 1.000001 -8.000000 8.000000
v 1.000001 -8.000000 6.000000
v 1.000001 -8.000000 4.000000
v 1.000001 -8.000000 2.000000
v 1.000001 -8.000000 0.000000
v 1.000001 -8.000000 -2.000000
v 1.000001 -8.000000 -4.000000
v 1.000001 -8.000000 -6.000000
v 1.000001 -8.000000 -8.000000
v 1.000001 -8.000000 -10.000000
v 1.000001 -8.000000 -12.000000
v 1.000000 6.000000 -8.000000
v 1.000000 6.000000 -10.000000
v 1.000000 6.000000 -12.000000
v 1.000000 -6.000000 -16.000000
v 1.000000 -6.000000 14.000000
v 1.000000 -6.000000 12.000000
v 1.000000 -4.000000 12.000000
v 1.000000 -6.000000 10.000000
v 1.000000 -4.000000 10.000000
v 1.000000 -6.000000 8.000000
v 1.000000 -4.000000 8.000000
v 1.000000 -2.000000 8.000000
v 1.000000 -6.000000 6.000000
v 1.000000 -4.000000 6.000000
v 1.000000 -2.000000 6.000000
v 1.000000 -6.000000 4.000000
v 1.000000 -4.000000 4.000000
v 1.000000 -2.000000 4.000000
v 1.000000 -6.000000 2.000000
v 1.000000 -6.000000 0.000000
v 1.000000 -6.000000 -2.000000
v 1.000000 -6.000000 -4.000000
v 1.000000 -6.000000 -6.000000
v 1.000000 -6.000000 -8.000000
v 1.000000 -4.000000 -8.000000
v 1.000000 -2.000000 -8.000000
v 1.000000 0.000000 -8.000000
v 1.000000 2.000000 -8.000000
v 1.000000 4.000000 -8.000000
v 1.000000 -6.000000 -10.000000
v 1.000000 -4.000000 -10.000000
v 1.000000 -2.000000 -10.000000
v 1.000000 0.000000 -10.000000
v 1.000000 2.000000 -10.000000
v 1.000000 4.000000 -10.000000
v 1.000000 -6.000000 -12.000000
v 1.000000 -4.000000 -12.000000
v 1.000000 -2.000000 -12.000000
v 1.000000 0.000000 -12.000000
v 1.000000 2.000000 -12.000000
v 1.000000 4.000000 -12.000000
v 1.000000 -6.000000 -14.000000
vn -1.000000 -0.000000 0.000000
vn 1.000000 0.000000 0.000000
vn 0.000000 0.000000 1.000000
vn 0.000000 1.000000 0.000000
vn 0.000000 -1.000000 0.000000
vn 0.000000 0.000000 -1.000000
usemtl None
s off
f 193//7 152//7 132//7 150//7
f 151//7 153//7 136//7 131//7
f 153//7 154//7 137//7 136//7
f 154//7 156//7 138//7 137//7
f 156//7 158//7 139//7 138//7
f 158//7 161//7 140//7 139//7
f 161//7 164//7 141//7 140//7
f 164//7 167//7 142//7 141//7
f 167//7 168//7 143//7 142//7
f 168//7 169//7 144//7 143//7
f 169//7 170//7 145//7 144//7
f 170//7 171//7 146//7 145//7
f 171//7 172//7 147//7 146//7
f 172//7 179//7 148//7 147//7
f 179//7 186//7 149//7 148//7
f 186//7 193//7 150//7 149//7
f 134//7 133//7 192//7 185//7
f 185//7 192//7 191//7 184//7
f 184//7 191//7 190//7 183//7
f 183//7 190//7 189//7 182//7
f 182//7 189//7 188//7 181//7
f 181//7 188//7 187//7 180//7
f 180//7 187//7 186//7 179//7
f 135//7 134//7 185//7 178//7
f 178//7 185//7 184//7 177//7
f 177//7 184//7 183//7 176//7
f 176//7 183//7 182//7 175//7
f 175//7 182//7 181//7 174//7
f 174//7 181//7 180//7 173//7
f 173//7 180//7 179//7 172//7
f 163//7 166//7 165//7 162//7
f 162//7 165//7 164//7 161//7
f 160//7 163//7 162//7 159//7
f 159//7 162//7 161//7 158//7
f 157//7 159//7 158//7 156//7
f 155//7 157//7 156//7 154//7
f 256//8 196//8 197//8 218//8
f 194//8 195//8 201//8 219//8
f 219//8 201//8 202//8 220//8
f 220//8 202//8 203//8 222//8
f 222//8 203//8 204//8 224//8
f 224//8 204//8 205//8 227//8
f 227//8 205//8 206//8 230//8
f 230//8 206//8 207//8 233//8
f 233//8 207//8 208//8 234//8
f 234//8 208//8 209//8 235//8
f 235//8 209//8 210//8 236//8
f 236//8 210//8 211//8 237//8
f 237//8 211//8 212//8 238//8
f 238//8 212//8 213//8 244//8
f 244//8 213//8 214//8 250//8
f 250//8 214//8 196//8 256//8
f 199//8 216//8 217//8 198//8
f 216//8 249//8 255//8 217//8
f 249//8 248//8 254//8 255//8
f 248//8 247//8 253//8 254//8
f 247//8 246//8 252//8 253//8
f 246//8 245//8 251//8 252//8
f 245//8 244//8 250//8 251//8
f 200//8 215//8 216//8 199//8
f 215//8 243//8 249//8 216//8
f 243//8 242//8 248//8 249//8
f 242//8 241//8 247//8 248//8
f 241//8 240//8 246//8 247//8
f 240//8 239//8 245//8 246//8
f 239//8 238//8 244//8 245//8
f 229//8 228//8 231//8 232//8
f 228//8 227//8 230//8 231//8
f 226//8 225//8 228//8 229//8
f 225//8 224//8 227//8 228//8
f 223//8 222//8 224//8 225//8
f 221//8 220//8 222//8 223//8
f 151//9 131//9 195//9 194//9
f 172//10 171//10 237//10 238//10
f 150//11 132//11 197//11 196//11
f 171//10 170//10 236//10 237//10
f 133//10 134//10 199//10 198//10
f 170//10 169//10 235//10 236//10
f 134//10 135//10 200//10 199//10
f 169//10 168//10 234//10 235//10
f 160//9 159//9 225//9 226//9
f 131//11 136//11 201//11 195//11
f 168//10 167//10 233//10 234//10
f 186//12 187//12 251//12 250//12
f 136//11 137//11 202//11 201//11
f 167//10 164//10 230//10 233//10
f 187//12 188//12 252//12 251//12
f 137//11 138//11 203//11 202//11
f 166//10 163//10 229//10 232//10
f 188//12 189//12 253//12 252//12
f 138//11 139//11 204//11 203//11
f 189//12 190//12 254//12 253//12
f 139//11 140//11 205//11 204//11
f 190//12 191//12 255//12 254//12
f 164//12 165//12 231//12 230//12
f 140//11 141//11 206//11 205//11
f 163//10 160//10 226//10 229//10
f 191//12 192//12 217//12 255//12
f 165//12 166//12 232//12 231//12
f 141//11 142//11 207//11 206//11
f 142//11 143//11 208//11 207//11
f 193//10 186//10 250//10 256//10
f 143//11 144//11 209//11 208//11
f 159//10 157//10 223//10 225//10
f 144//11 145//11 210//11 209//11
f 145//11 146//11 211//11 210//11
f 157//10 155//10 221//10 223//10
f 146//11 147//11 212//11 211//11
f 147//11 148//11 213//11 212//11
f 154//10 153//10 219//10 220//10
f 173//9 172//9 238//9 239//9
f 148//11 149//11 214//11 213//11
f 153//10 151//10 194//10 219//10
f 174//9 173//9 239//9 240//9
f 149//11 150//11 196//11 214//11
f 152//10 193//10 256//10 218//10
f 175//9 174//9 240//9 241//9
f 135//9 178//9 215//9 200//9
f 176//9 175//9 241//9 242//9
f 177//9 176//9 242//9 243//9
f 192//12 133//12 198//12 217//12
f 178//9 177//9 243//9 215//9
f 132//12 152//12 218//12 197//12
f 155//9 154//9 220//9 221//9
