# Blender v2.76 (sub 0) OBJ File: ''
# www.blender.org
mtllib TestChunk2Blue.mtl
o Plane.001
v -0.827555 -8.000000 16.000000
v -0.827555 -8.000000 -16.000000
v -0.827557 8.000000 0.000000
v -0.827557 8.000000 2.000000
v -0.827557 8.000000 4.000000
v -0.827555 -8.000000 14.000000
v -0.827555 -8.000000 12.000000
v -0.827555 -8.000000 10.000000
v -0.827555 -8.000000 8.000000
v -0.827555 -8.000000 6.000000
v -0.827555 -8.000000 4.000000
v -0.827555 -8.000000 2.000000
v -0.827555 -8.000000 0.000000
v -0.827555 -8.000000 -2.000000
v -0.827555 -8.000000 -4.000000
v -0.827555 -8.000000 -6.000000
v -0.827555 -8.000000 -8.000000
v -0.827555 -8.000000 -10.000000
v -0.827555 -8.000000 -12.000000
v -0.827555 -8.000000 -14.000000
v -0.827555 -6.000000 16.000000
v -0.827555 -6.000000 -16.000000
v -0.827555 -6.000000 14.000000
v -0.827555 -6.000000 12.000000
v -0.827556 -4.000000 12.000000
v -0.827555 -6.000000 10.000000
v -0.827556 -4.000000 10.000000
v -0.827555 -6.000000 8.000000
v -0.827556 -4.000000 8.000000
v -0.827556 -2.000000 8.000000
v -0.827555 -6.000000 6.000000
v -0.827556 -4.000000 6.000000
v -0.827556 -2.000000 6.000000
v -0.827555 -6.000000 4.000000
v -0.827556 -4.000000 4.000000
v -0.827556 -2.000000 4.000000
v -0.827556 0.000000 4.000000
v -0.827556 2.000000 4.000000
v -0.827556 4.000000 4.000000
v -0.827556 6.000000 4.000000
v -0.827555 -6.000000 2.000000
v -0.827556 -4.000000 2.000000
v -0.827556 -2.000000 2.000000
v -0.827556 0.000000 2.000000
v -0.827556 2.000000 2.000000
v -0.827556 4.000000 2.000000
v -0.827556 6.000000 2.000000
v -0.827555 -6.000000 0.000000
v -0.827556 -4.000000 0.000000
v -0.827556 -2.000000 0.000000
v -0.827556 0.000000 0.000000
v -0.827556 2.000000 0.000000
v -0.827556 4.000000 0.000000
v -0.827556 6.000000 0.000000
v -0.827555 -6.000000 -2.000000
v -0.827555 -6.000000 -4.000000
v -0.827555 -6.000000 -6.000000
v -0.827556 -4.000000 -6.000000
v -0.827556 -2.000000 -6.000000
v -0.827555 -6.000000 -8.000000
v -0.827556 -4.000000 -8.000000
v -0.827556 -2.000000 -8.000000
v -0.827555 -6.000000 -10.000000
v -0.827555 -6.000000 -12.000000
v -0.827555 -6.000000 -14.000000
v 0.172445 -6.000000 16.000000
v 0.172445 -8.000000 16.000000
v 0.172445 -8.000000 -14.000000
v 0.172445 -8.000000 -16.000000
v 0.172443 8.000000 0.000000
v 0.172443 8.000000 2.000000
v 0.172443 8.000000 4.000000
v 0.172445 -8.000000 14.000000
v 0.172445 -8.000000 12.000000
v 0.172445 -8.000000 10.000000
v 0.172445 -8.000000 8.000000
v 0.172445 -8.000000 6.000000
v 0.172445 -8.000000 4.000000
v 0.172445 -8.000000 2.000000
v 0.172445 -8.000000 0.000000
v 0.172445 -8.000000 -2.000000
v 0.172445 -8.000000 -4.000000
v 0.172445 -8.000000 -6.000000
v 0.172445 -8.000000 -8.000000
v 0.172445 -8.000000 -10.000000
v 0.172445 -8.000000 -12.000000
v 0.172444 6.000000 4.000000
v 0.172444 6.000000 2.000000
v 0.172444 6.000000 0.000000
v 0.172445 -6.000000 -16.000000
v 0.172445 -6.000000 14.000000
v 0.172445 -6.000000 12.000000
v 0.172444 -4.000000 12.000000
v 0.172445 -6.000000 10.000000
v 0.172444 -4.000000 10.000000
v 0.172445 -6.000000 8.000000
v 0.172444 -4.000000 8.000000
v 0.172444 -2.000000 8.000000
v 0.172445 -6.000000 6.000000
v 0.172444 -4.000000 6.000000
v 0.172444 -2.000000 6.000000
v 0.172445 -6.000000 4.000000
v 0.172444 -4.000000 4.000000
v 0.172444 -2.000000 4.000000
v 0.172444 0.000000 4.000000
v 0.172444 2.000000 4.000000
v 0.172444 4.000000 4.000000
v 0.172445 -6.000000 2.000000
v 0.172444 -4.000000 2.000000
v 0.172444 -2.000000 2.000000
v 0.172444 0.000000 2.000000
v 0.172444 2.000000 2.000000
v 0.172444 4.000000 2.000000
v 0.172445 -6.000000 0.000000
v 0.172444 -4.000000 0.000000
v 0.172444 -2.000000 0.000000
v 0.172444 0.000000 0.000000
v 0.172444 2.000000 0.000000
v 0.172444 4.000000 0.000000
v 0.172445 -6.000000 -2.000000
v 0.172445 -6.000000 -4.000000
v 0.172445 -6.000000 -6.000000
v 0.172444 -4.000000 -6.000000
v 0.172444 -2.000000 -6.000000
v 0.172445 -6.000000 -8.000000
v 0.172444 -4.000000 -8.000000
v 0.172444 -2.000000 -8.000000
v 0.172445 -6.000000 -10.000000
v 0.172445 -6.000000 -12.000000
v 0.172445 -6.000000 -14.000000
vt 0.461222 0.937500
vt 0.461222 0.570312
vt 0.586222 0.570312
vt 0.586222 0.937500
vt 0.461222 0.000000
vt 0.461222 0.062500
vt 0.586222 0.062500
vt 0.586222 0.000000
vt 0.461222 0.125000
vt 0.586222 0.125000
vt 0.461222 0.187500
vt 0.586222 0.187500
vt 0.461222 0.250000
vt 0.586222 0.250000
vt 0.461222 0.312500
vt 0.586222 0.312500
vt 0.461222 0.375000
vt 0.586222 0.375000
vt 0.461222 0.437500
vt 0.586222 0.437500
vt 0.461222 0.500000
vt 0.586222 0.500000
vt 0.461222 0.562500
vt 0.586222 0.562500
vt 0.461222 0.625000
vt 0.586222 0.625000
vt 0.461222 0.687500
vt 0.586222 0.687500
vt 0.461222 0.750000
vt 0.586222 0.750000
vt 0.461222 0.812500
vt 0.586222 0.812500
vt 0.461222 0.875000
vt 0.586222 0.875000
vt 0.211222 0.687500
vt 0.211222 0.320312
vt 0.336222 0.750000
vt 0.336222 0.687500
vt 0.711222 0.500000
vt 0.711222 0.437500
vt 0.836222 0.500000
vt 0.836222 0.437500
vt 0.961222 0.500000
vt 0.961222 0.437500
vt 1.086222 0.500000
vt 1.086222 0.437500
vt 0.086222 0.437500
vt 0.086222 0.500000
vt 0.211222 0.500000
vt 0.211222 0.437500
vt 0.336222 0.500000
vt 0.336222 0.437500
vt 0.711222 0.375000
vt 0.836222 0.375000
vt 0.961222 0.375000
vt 1.086222 0.375000
vt 0.086222 0.375000
vt 0.211222 0.375000
vt 0.336222 0.375000
vt 0.211222 0.312500
vt 0.336222 0.312500
vt 0.211222 0.250000
vt 0.336222 0.250000
vt 0.336222 0.187500
vt 0.336222 0.125000
vt 0.211222 0.750000
vt 0.062500 0.500000
vt 0.000000 0.500000
vt 0.000000 0.570312
vt 0.062500 0.570312
vt 0.562500 0.500000
vt 0.500000 0.500000
vt 0.500000 0.570312
vt 0.562500 0.570312
vt -0.062500 0.500000
vt -0.062500 0.570312
vt 0.711222 0.570312
vt 0.336222 0.570312
vt 0.211222 0.570312
vt 0.086222 0.570312
vt -0.038778 0.500000
vt -0.038778 0.570312
vt 0.836222 0.570312
vt 0.961222 0.570312
vt 0.937500 0.500000
vt 1.000000 0.500000
vt 1.000000 0.570312
vt 0.937500 0.570312
vt 0.437500 0.500000
vt 0.437500 0.570312
vt 0.375000 0.500000
vt 0.375000 0.570312
vt 0.125000 0.500000
vt 0.125000 0.570312
vt 0.187500 0.500000
vt 0.187500 0.570312
vt 0.250000 0.500000
vt 0.250000 0.570312
vt 0.312500 0.500000
vt 0.312500 0.570312
vt 0.875000 0.500000
vt 0.875000 0.570312
vt 1.086222 0.570312
vt 0.812500 0.500000
vt 0.812500 0.570312
vt 0.625000 0.500000
vt 0.625000 0.570312
vt 0.750000 0.500000
vt 0.750000 0.570312
vt 0.687500 0.500000
vt 0.687500 0.570312
vn -1.000000 -0.000000 0.000000
vn 1.000000 0.000000 0.000000
vn 0.000000 1.000000 0.000000
vn 0.000000 0.000000 -1.000000
vn 0.000000 0.000000 1.000000
vn 0.000000 -1.000000 0.000000
usemtl Material.001
s off
f 65/1/1 22/2/1 2/3/1 20/4/1
f 21/5/1 23/6/1 6/7/1 1/8/1
f 23/6/1 24/9/1 7/10/1 6/7/1
f 24/9/1 26/11/1 8/12/1 7/10/1
f 26/11/1 28/13/1 9/14/1 8/12/1
f 28/13/1 31/15/1 10/16/1 9/14/1
f 31/15/1 34/17/1 11/18/1 10/16/1
f 34/17/1 41/19/1 12/20/1 11/18/1
f 41/19/1 48/21/1 13/22/1 12/20/1
f 48/21/1 55/23/1 14/24/1 13/22/1
f 55/23/1 56/25/1 15/26/1 14/24/1
f 56/25/1 57/27/1 16/28/1 15/26/1
f 57/27/1 60/29/1 17/30/1 16/28/1
f 60/29/1 63/31/1 18/32/1 17/30/1
f 63/31/1 64/33/1 19/34/1 18/32/1
f 64/33/1 65/1/1 20/4/1 19/34/1
f 59/35/1 62/36/1 61/37/1 58/38/1
f 4/20/1 3/22/1 54/39/1 47/40/1
f 47/40/1 54/39/1 53/41/1 46/42/1
f 46/42/1 53/41/1 52/43/1 45/44/1
f 45/44/1 52/43/1 51/45/1 44/46/1
f 44/47/1 51/48/1 50/49/1 43/50/1
f 43/50/1 50/49/1 49/51/1 42/52/1
f 42/52/1 49/51/1 48/21/1 41/19/1
f 5/18/1 4/20/1 47/40/1 40/53/1
f 40/53/1 47/40/1 46/42/1 39/54/1
f 39/54/1 46/42/1 45/44/1 38/55/1
f 38/55/1 45/44/1 44/46/1 37/56/1
f 37/57/1 44/47/1 43/50/1 36/58/1
f 36/58/1 43/50/1 42/52/1 35/59/1
f 35/59/1 42/52/1 41/19/1 34/17/1
f 33/60/1 36/58/1 35/59/1 32/61/1
f 32/61/1 35/59/1 34/17/1 31/15/1
f 30/62/1 33/60/1 32/61/1 29/63/1
f 29/63/1 32/61/1 31/15/1 28/13/1
f 27/64/1 29/63/1 28/13/1 26/11/1
f 25/65/1 27/64/1 26/11/1 24/9/1
f 130/1/2 68/4/2 69/3/2 90/2/2
f 66/5/2 67/8/2 73/7/2 91/6/2
f 91/6/2 73/7/2 74/10/2 92/9/2
f 92/9/2 74/10/2 75/12/2 94/11/2
f 94/11/2 75/12/2 76/14/2 96/13/2
f 96/13/2 76/14/2 77/16/2 99/15/2
f 99/15/2 77/16/2 78/18/2 102/17/2
f 102/17/2 78/18/2 79/20/2 108/19/2
f 108/19/2 79/20/2 80/22/2 114/21/2
f 114/21/2 80/22/2 81/24/2 120/23/2
f 120/23/2 81/24/2 82/26/2 121/25/2
f 121/25/2 82/26/2 83/28/2 122/27/2
f 122/27/2 83/28/2 84/30/2 125/29/2
f 125/29/2 84/30/2 85/32/2 128/31/2
f 128/31/2 85/32/2 86/34/2 129/33/2
f 129/33/2 86/34/2 68/4/2 130/1/2
f 124/35/2 123/38/2 126/37/2 127/66/2
f 71/20/2 88/40/2 89/39/2 70/22/2
f 88/40/2 113/42/2 119/41/2 89/39/2
f 113/42/2 112/44/2 118/43/2 119/41/2
f 112/44/2 111/46/2 117/45/2 118/43/2
f 111/47/2 110/50/2 116/49/2 117/48/2
f 110/50/2 109/52/2 115/51/2 116/49/2
f 109/52/2 108/19/2 114/21/2 115/51/2
f 72/18/2 87/53/2 88/40/2 71/20/2
f 87/53/2 107/54/2 113/42/2 88/40/2
f 107/54/2 106/55/2 112/44/2 113/42/2
f 106/55/2 105/56/2 111/46/2 112/44/2
f 105/57/2 104/58/2 110/50/2 111/47/2
f 104/58/2 103/59/2 109/52/2 110/50/2
f 103/59/2 102/17/2 108/19/2 109/52/2
f 101/60/2 100/61/2 103/59/2 104/58/2
f 100/61/2 99/15/2 102/17/2 103/59/2
f 98/62/2 97/63/2 100/61/2 101/60/2
f 97/63/2 96/13/2 99/15/2 100/61/2
f 95/64/2 94/11/2 96/13/2 97/63/2
f 93/65/2 92/9/2 94/11/2 95/64/2
f 23/67/3 21/68/3 66/69/3 91/70/3
f 55/71/3 48/72/3 114/73/3 120/74/3
f 22/68/3 65/75/3 130/76/3 90/69/3
f 54/39/4 3/22/4 70/3/4 89/77/4
f 2/22/4 22/21/4 90/2/4 69/3/4
f 48/21/4 49/51/4 115/78/4 114/2/4
f 49/51/4 50/49/4 116/79/4 115/78/4
f 50/49/4 51/48/4 117/80/4 116/79/4
f 25/51/5 24/21/5 92/2/5 93/78/5
f 51/48/4 52/81/4 118/82/4 117/80/4
f 21/21/5 1/22/5 67/3/5 66/2/5
f 52/43/4 53/41/4 119/83/4 118/84/4
f 20/85/6 2/86/6 69/87/6 68/88/6
f 53/41/4 54/39/4 89/77/4 119/83/4
f 3/72/3 4/89/3 71/90/3 70/73/3
f 4/89/3 5/91/3 72/92/3 71/90/3
f 30/49/5 29/51/5 97/78/5 98/79/5
f 1/68/6 6/67/6 73/70/6 67/69/6
f 6/67/6 7/93/6 74/94/6 73/70/6
f 59/49/5 58/51/5 123/78/5 124/79/5
f 7/93/6 8/95/6 75/96/6 74/94/6
f 8/95/6 9/97/6 76/98/6 75/96/6
f 61/51/4 62/49/4 127/79/4 126/78/4
f 9/97/6 10/99/6 77/100/6 76/98/6
f 36/91/3 33/99/3 101/100/3 104/92/3
f 10/99/6 11/91/6 78/92/6 77/100/6
f 11/91/6 12/89/6 79/90/6 78/92/6
f 37/48/5 36/49/5 104/79/5 105/80/5
f 12/89/6 13/72/6 80/73/6 79/90/6
f 33/99/3 30/97/3 98/98/3 101/100/3
f 65/85/3 64/101/3 129/102/3 130/88/3
f 38/43/5 37/45/5 105/103/5 106/84/5
f 13/72/6 14/71/6 81/74/6 80/73/6
f 64/101/3 63/104/3 128/105/3 129/102/3
f 39/41/5 38/43/5 106/84/5 107/83/5
f 14/71/6 15/106/6 82/107/6 81/74/6
f 63/104/3 60/108/3 125/109/3 128/105/3
f 40/39/5 39/41/5 107/83/5 87/77/5
f 15/106/6 16/110/6 83/111/6 82/107/6
f 29/97/3 27/95/3 95/96/3 97/98/3
f 62/108/3 59/110/3 124/111/3 127/109/3
f 16/110/6 17/108/6 84/109/6 83/111/6
f 58/110/6 61/108/6 126/109/6 123/111/6
f 17/108/6 18/104/6 85/105/6 84/109/6
f 27/95/3 25/93/3 93/94/3 95/96/3
f 60/108/3 57/110/3 122/111/3 125/109/3
f 18/104/6 19/101/6 86/102/6 85/105/6
f 57/110/3 56/106/3 121/107/3 122/111/3
f 19/101/6 20/85/6 68/88/6 86/102/6
f 24/93/3 23/67/3 91/70/3 92/94/3
f 56/106/3 55/71/3 120/74/3 121/107/3
f 5/22/5 40/39/5 87/77/5 72/3/5
