# Blender v2.76 (sub 0) OBJ File: ''
# www.blender.org
mtllib TestChunk.mtl
o Plane.001
v -0.827555 -8.000000 16.000000
v -0.827555 -8.000000 -16.000000
v -0.827557 8.000000 -2.000000
v -0.827557 8.000000 0.000000
v -0.827555 -8.000000 14.000000
v -0.827555 -8.000000 12.000000
v -0.827555 -8.000000 10.000000
v -0.827555 -8.000000 8.000000
v -0.827555 -8.000000 6.000000
v -0.827555 -8.000000 4.000000
v -0.827555 -8.000000 2.000000
v -0.827555 -8.000000 0.000000
v -0.827555 -8.000000 -8.000000
v -0.827555 -8.000000 -10.000000
v -0.827555 -8.000000 -12.000000
v -0.827555 -8.000000 -14.000000
v -0.827555 -6.000000 16.000000
v -0.827555 -6.000000 -16.000000
v -0.827555 -6.000000 14.000000
v -0.827555 -6.000000 12.000000
v -0.827555 -6.000000 10.000000
v -0.827555 -6.000000 8.000000
v -0.827555 -6.000000 6.000000
v -0.827555 -6.000000 4.000000
v -0.827555 -6.000000 2.000000
v -0.827555 -6.000000 0.000000
v -0.827556 -4.000000 0.000000
v -0.827556 -2.000000 0.000000
v -0.827556 0.000000 0.000000
v -0.827556 2.000000 0.000000
v -0.827556 4.000000 0.000000
v -0.827556 6.000000 0.000000
v -0.827556 -4.000000 -2.000000
v -0.827556 -2.000000 -2.000000
v -0.827556 0.000000 -2.000000
v -0.827556 2.000000 -2.000000
v -0.827556 4.000000 -2.000000
v -0.827556 6.000000 -2.000000
v -0.827555 -6.000000 -8.000000
v -0.827555 -6.000000 -10.000000
v -0.827555 -6.000000 -12.000000
v -0.827555 -6.000000 -14.000000
v 0.172445 -6.000000 16.000000
v 0.172445 -8.000000 16.000000
v 0.172445 -8.000000 -14.000000
v 0.172445 -8.000000 -16.000000
v 0.172443 8.000000 -2.000000
v 0.172443 8.000000 0.000000
v 0.172445 -8.000000 14.000000
v 0.172445 -8.000000 12.000000
v 0.172445 -8.000000 10.000000
v 0.172445 -8.000000 8.000000
v 0.172445 -8.000000 6.000000
v 0.172445 -8.000000 4.000000
v 0.172445 -8.000000 2.000000
v 0.172445 -8.000000 0.000000
v 0.172445 -8.000000 -8.000000
v 0.172445 -8.000000 -10.000000
v 0.172445 -8.000000 -12.000000
v 0.172444 6.000000 0.000000
v 0.172444 6.000000 -2.000000
v 0.172445 -6.000000 -16.000000
v 0.172445 -6.000000 14.000000
v 0.172445 -6.000000 12.000000
v 0.172445 -6.000000 10.000000
v 0.172445 -6.000000 8.000000
v 0.172445 -6.000000 6.000000
v 0.172445 -6.000000 4.000000
v 0.172445 -6.000000 2.000000
v 0.172445 -6.000000 0.000000
v 0.172444 -4.000000 0.000000
v 0.172444 -2.000000 0.000000
v 0.172444 0.000000 0.000000
v 0.172444 2.000000 0.000000
v 0.172444 4.000000 0.000000
v 0.172444 -4.000000 -2.000000
v 0.172444 -2.000000 -2.000000
v 0.172444 0.000000 -2.000000
v 0.172444 2.000000 -2.000000
v 0.172444 4.000000 -2.000000
v 0.172445 -6.000000 -8.000000
v 0.172445 -6.000000 -10.000000
v 0.172445 -6.000000 -12.000000
v 0.172445 -6.000000 -14.000000
vn -1.000000 -0.000000 0.000000
vn 1.000000 0.000000 0.000000
vn 0.000000 0.000000 -1.000000
vn 0.000000 -1.000000 0.000000
vn 0.000000 1.000000 0.000000
vn 0.000000 0.000000 1.000000
usemtl None
s off
f 42//1 18//1 2//1 16//1
f 17//1 19//1 5//1 1//1
f 19//1 20//1 6//1 5//1
f 20//1 21//1 7//1 6//1
f 21//1 22//1 8//1 7//1
f 22//1 23//1 9//1 8//1
f 23//1 24//1 10//1 9//1
f 24//1 25//1 11//1 10//1
f 25//1 26//1 12//1 11//1
f 39//1 40//1 14//1 13//1
f 40//1 41//1 15//1 14//1
f 41//1 42//1 16//1 15//1
f 4//1 3//1 38//1 32//1
f 32//1 38//1 37//1 31//1
f 31//1 37//1 36//1 30//1
f 30//1 36//1 35//1 29//1
f 29//1 35//1 34//1 28//1
f 28//1 34//1 33//1 27//1
f 84//2 45//2 46//2 62//2
f 43//2 44//2 49//2 63//2
f 63//2 49//2 50//2 64//2
f 64//2 50//2 51//2 65//2
f 65//2 51//2 52//2 66//2
f 66//2 52//2 53//2 67//2
f 67//2 53//2 54//2 68//2
f 68//2 54//2 55//2 69//2
f 69//2 55//2 56//2 70//2
f 81//2 57//2 58//2 82//2
f 82//2 58//2 59//2 83//2
f 83//2 59//2 45//2 84//2
f 48//2 60//2 61//2 47//2
f 60//2 75//2 80//2 61//2
f 75//2 74//2 79//2 80//2
f 74//2 73//2 78//2 79//2
f 73//2 72//2 77//2 78//2
f 72//2 71//2 76//2 77//2
f 34//3 35//3 78//3 77//3
f 6//4 7//4 51//4 50//4
f 35//3 36//3 79//3 78//3
f 7//4 8//4 52//4 51//4
f 36//3 37//3 80//3 79//3
f 27//4 33//4 76//4 71//4
f 8//4 9//4 53//4 52//4
f 37//3 38//3 61//3 80//3
f 26//5 25//5 69//5 70//5
f 9//4 10//4 54//4 53//4
f 39//6 13//6 57//6 81//6
f 25//5 24//5 68//5 69//5
f 10//4 11//4 55//4 54//4
f 24//5 23//5 67//5 68//5
f 11//4 12//4 56//4 55//4
f 12//3 26//3 70//3 56//3
f 23//5 22//5 66//5 67//5
f 13//4 14//4 58//4 57//4
f 28//6 27//6 71//6 72//6
f 22//5 21//5 65//5 66//5
f 14//4 15//4 59//4 58//4
f 42//5 41//5 83//5 84//5
f 29//6 28//6 72//6 73//6
f 21//5 20//5 64//5 65//5
f 15//4 16//4 45//4 59//4
f 41//5 40//5 82//5 83//5
f 17//6 1//6 44//6 43//6
f 30//6 29//6 73//6 74//6
f 20//5 19//5 63//5 64//5
f 4//6 32//6 60//6 48//6
f 40//5 39//5 81//5 82//5
f 16//4 2//4 46//4 45//4
f 31//6 30//6 74//6 75//6
f 19//5 17//5 43//5 63//5
f 38//3 3//3 47//3 61//3
f 3//5 4//5 48//5 47//5
f 32//6 31//6 75//6 60//6
f 18//5 42//5 84//5 62//5
f 2//3 18//3 62//3 46//3
f 1//4 5//4 49//4 44//4
f 33//3 34//3 77//3 76//3
f 5//4 6//4 50//4 49//4
o Plane
v 0.000001 -8.000000 16.000000
v 0.000001 -8.000000 -16.000000
v -0.000001 8.000000 -10.000000
v -0.000001 8.000000 -8.000000
v -0.000001 8.000000 6.000000
v -0.000001 8.000000 8.000000
v 0.000001 -8.000000 14.000000
v 0.000001 -8.000000 12.000000
v 0.000001 -8.000000 10.000000
v 0.000001 -8.000000 8.000000
v 0.000001 -8.000000 0.000000
v 0.000001 -8.000000 -2.000000
v 0.000001 -8.000000 -4.000000
v 0.000001 -8.000000 -6.000000
v 0.000001 -8.000000 -8.000000
v 0.000001 -8.000000 -10.000000
v 0.000001 -8.000000 -12.000000
v 0.000001 -8.000000 -14.000000
v 0.000000 -6.000000 16.000000
v 0.000000 -6.000000 -16.000000
v 0.000000 -6.000000 14.000000
v 0.000000 -6.000000 12.000000
v 0.000000 -6.000000 10.000000
v 0.000000 -6.000000 8.000000
v 0.000000 -4.000000 8.000000
v 0.000000 -2.000000 8.000000
v 0.000000 0.000000 8.000000
v -0.000000 2.000000 8.000000
v -0.000000 4.000000 8.000000
v -0.000000 6.000000 8.000000
v 0.000000 -6.000000 6.000000
v 0.000000 -4.000000 6.000000
v 0.000000 -2.000000 6.000000
v 0.000000 0.000000 6.000000
v -0.000000 2.000000 6.000000
v -0.000000 4.000000 6.000000
v -0.000000 6.000000 6.000000
v 0.000000 -6.000000 0.000000
v 0.000000 -4.000000 0.000000
v 0.000000 -6.000000 -2.000000
v 0.000000 -4.000000 -2.000000
v 0.000000 -6.000000 -4.000000
v 0.000000 -4.000000 -4.000000
v 0.000000 -6.000000 -6.000000
v 0.000000 -4.000000 -6.000000
v 0.000000 -6.000000 -8.000000
v 0.000000 -4.000000 -8.000000
v 0.000000 -2.000000 -8.000000
v 0.000000 0.000000 -8.000000
v -0.000000 2.000000 -8.000000
v -0.000000 4.000000 -8.000000
v -0.000000 6.000000 -8.000000
v 0.000000 -6.000000 -10.000000
v 0.000000 -4.000000 -10.000000
v 0.000000 -2.000000 -10.000000
v 0.000000 0.000000 -10.000000
v -0.000000 2.000000 -10.000000
v -0.000000 4.000000 -10.000000
v -0.000000 6.000000 -10.000000
v 0.000000 -6.000000 -12.000000
v 0.000000 -6.000000 -14.000000
v 1.000000 -6.000000 16.000000
v 1.000001 -8.000000 16.000000
v 1.000001 -8.000000 -14.000000
v 1.000001 -8.000000 -16.000000
v 0.999999 8.000000 -10.000000
v 0.999999 8.000000 -8.000000
v 0.999999 8.000000 6.000000
v 0.999999 8.000000 8.000000
v 1.000001 -8.000000 14.000000
v 1.000001 -8.000000 12.000000
v 1.000001 -8.000000 10.000000
v 1.000001 -8.000000 8.000000
v 1.000001 -8.000000 0.000000
v 1.000001 -8.000000 -2.000000
v 1.000001 -8.000000 -4.000000
v 1.000001 -8.000000 -6.000000
v 1.000001 -8.000000 -8.000000
v 1.000001 -8.000000 -10.000000
v 1.000001 -8.000000 -12.000000
v 1.000000 6.000000 8.000000
v 1.000000 6.000000 6.000000
v 1.000000 6.000000 -8.000000
v 1.000000 6.000000 -10.000000
v 1.000000 -6.000000 -16.000000
v 1.000000 -6.000000 14.000000
v 1.000000 -6.000000 12.000000
v 1.000000 -6.000000 10.000000
v 1.000000 -6.000000 8.000000
v 1.000000 -4.000000 8.000000
v 1.000000 -2.000000 8.000000
v 1.000000 0.000000 8.000000
v 1.000000 2.000000 8.000000
v 1.000000 4.000000 8.000000
v 1.000000 -6.000000 6.000000
v 1.000000 -4.000000 6.000000
v 1.000000 -2.000000 6.000000
v 1.000000 0.000000 6.000000
v 1.000000 2.000000 6.000000
v 1.000000 4.000000 6.000000
v 1.000000 -6.000000 0.000000
v 1.000000 -4.000000 0.000000
v 1.000000 -6.000000 -2.000000
v 1.000000 -4.000000 -2.000000
v 1.000000 -6.000000 -4.000000
v 1.000000 -4.000000 -4.000000
v 1.000000 -6.000000 -6.000000
v 1.000000 -4.000000 -6.000000
v 1.000000 -6.000000 -8.000000
v 1.000000 -4.000000 -8.000000
v 1.000000 -2.000000 -8.000000
v 1.000000 0.000000 -8.000000
v 1.000000 2.000000 -8.000000
v 1.000000 4.000000 -8.000000
v 1.000000 -6.000000 -10.000000
v 1.000000 -4.000000 -10.000000
v 1.000000 -2.000000 -10.000000
v 1.000000 0.000000 -10.000000
v 1.000000 2.000000 -10.000000
v 1.000000 4.000000 -10.000000
v 1.000000 -6.000000 -12.000000
v 1.000000 -6.000000 -14.000000
vn -1.000000 -0.000000 0.000000
vn 1.000000 0.000000 0.000000
vn 0.000000 -1.000000 0.000000
vn 0.000000 0.000000 1.000000
vn 0.000000 0.000000 -1.000000
vn 0.000000 1.000000 0.000000
usemtl None
s off
f 145//7 104//7 86//7 102//7
f 103//7 105//7 91//7 85//7
f 105//7 106//7 92//7 91//7
f 106//7 107//7 93//7 92//7
f 107//7 108//7 94//7 93//7
f 122//7 124//7 96//7 95//7
f 124//7 126//7 97//7 96//7
f 126//7 128//7 98//7 97//7
f 128//7 130//7 99//7 98//7
f 130//7 137//7 100//7 99//7
f 137//7 144//7 101//7 100//7
f 144//7 145//7 102//7 101//7
f 88//7 87//7 143//7 136//7
f 136//7 143//7 142//7 135//7
f 135//7 142//7 141//7 134//7
f 134//7 141//7 140//7 133//7
f 133//7 140//7 139//7 132//7
f 132//7 139//7 138//7 131//7
f 131//7 138//7 137//7 130//7
f 129//7 131//7 130//7 128//7
f 127//7 129//7 128//7 126//7
f 125//7 127//7 126//7 124//7
f 123//7 125//7 124//7 122//7
f 90//7 89//7 121//7 114//7
f 114//7 121//7 120//7 113//7
f 113//7 120//7 119//7 112//7
f 112//7 119//7 118//7 111//7
f 111//7 118//7 117//7 110//7
f 110//7 117//7 116//7 109//7
f 109//7 116//7 115//7 108//7
f 206//8 148//8 149//8 169//8
f 146//8 147//8 154//8 170//8
f 170//8 154//8 155//8 171//8
f 171//8 155//8 156//8 172//8
f 172//8 156//8 157//8 173//8
f 185//8 158//8 159//8 187//8
f 187//8 159//8 160//8 189//8
f 189//8 160//8 161//8 191//8
f 191//8 161//8 162//8 193//8
f 193//8 162//8 163//8 199//8
f 199//8 163//8 164//8 205//8
f 205//8 164//8 148//8 206//8
f 151//8 167//8 168//8 150//8
f 167//8 198//8 204//8 168//8
f 198//8 197//8 203//8 204//8
f 197//8 196//8 202//8 203//8
f 196//8 195//8 201//8 202//8
f 195//8 194//8 200//8 201//8
f 194//8 193//8 199//8 200//8
f 192//8 191//8 193//8 194//8
f 190//8 189//8 191//8 192//8
f 188//8 187//8 189//8 190//8
f 186//8 185//8 187//8 188//8
f 153//8 165//8 166//8 152//8
f 165//8 178//8 184//8 166//8
f 178//8 177//8 183//8 184//8
f 177//8 176//8 182//8 183//8
f 176//8 175//8 181//8 182//8
f 175//8 174//8 180//8 181//8
f 174//8 173//8 179//8 180//8
f 100//9 101//9 164//9 163//9
f 101//9 102//9 148//9 164//9
f 90//10 114//10 165//10 153//10
f 121//11 89//11 152//11 166//11
f 131//12 129//12 192//12 194//12
f 88//10 136//10 167//10 151//10
f 143//11 87//11 150//11 168//11
f 129//12 127//12 190//12 192//12
f 86//11 104//11 169//11 149//11
f 132//10 131//10 194//10 195//10
f 127//12 125//12 188//12 190//12
f 133//10 132//10 195//10 196//10
f 134//10 133//10 196//10 197//10
f 125//12 123//12 186//12 188//12
f 135//10 134//10 197//10 198//10
f 94//11 108//11 173//11 157//11
f 136//10 135//10 198//10 167//10
f 109//10 108//10 173//10 174//10
f 110//10 109//10 174//10 175//10
f 137//11 138//11 200//11 199//11
f 111//10 110//10 175//10 176//10
f 103//10 85//10 147//10 146//10
f 138//11 139//11 201//11 200//11
f 112//10 111//10 176//10 177//10
f 102//9 86//9 149//9 148//9
f 139//11 140//11 202//11 201//11
f 113//10 112//10 177//10 178//10
f 87//12 88//12 151//12 150//12
f 140//11 141//11 203//11 202//11
f 114//10 113//10 178//10 165//10
f 89//12 90//12 153//12 152//12
f 141//11 142//11 204//11 203//11
f 115//11 116//11 180//11 179//11
f 85//9 91//9 154//9 147//9
f 108//9 115//9 179//9 173//9
f 142//11 143//11 168//11 204//11
f 116//11 117//11 181//11 180//11
f 91//9 92//9 155//9 154//9
f 108//12 107//12 172//12 173//12
f 117//11 118//11 182//11 181//11
f 92//9 93//9 156//9 155//9
f 107//12 106//12 171//12 172//12
f 118//11 119//11 183//11 182//11
f 93//9 94//9 157//9 156//9
f 106//12 105//12 170//12 171//12
f 145//12 144//12 205//12 206//12
f 119//11 120//11 184//11 183//11
f 95//9 96//9 159//9 158//9
f 105//12 103//12 146//12 170//12
f 144//12 137//12 199//12 205//12
f 120//11 121//11 166//11 184//11
f 96//9 97//9 160//9 159//9
f 104//12 145//12 206//12 169//12
f 122//10 95//10 158//10 185//10
f 97//9 98//9 161//9 160//9
f 123//10 122//10 185//10 186//10
f 98//9 99//9 162//9 161//9
f 99//9 100//9 163//9 162//9
