# Blender v2.76 (sub 0) OBJ File: ''
# www.blender.org
mtllib TestChunk2Red.mtl
o Plane.001
v 0.172445 -6.000000 16.000000
v 0.172445 -8.000000 16.000000
v 0.172445 -8.000000 14.000000
v 0.172445 -6.000000 14.000000
v 0.172445 -8.000000 12.000000
v 0.172445 -6.000000 12.000000
v 0.172444 -4.000000 12.000000
v 0.172445 -8.000000 10.000000
v 0.172445 -6.000000 10.000000
v 0.172444 -4.000000 10.000000
v 0.172445 -8.000000 8.000000
v 0.172445 -6.000000 8.000000
v 0.172444 -4.000000 8.000000
v 0.172444 -2.000000 8.000000
v 0.172445 -8.000000 6.000000
v 0.172445 -6.000000 6.000000
v 0.172444 -4.000000 6.000000
v 0.172444 -2.000000 6.000000
v 0.172445 -8.000000 4.000000
v 0.172445 -6.000000 4.000000
v 0.172444 -4.000000 4.000000
v 0.172444 -2.000000 4.000000
v 0.172445 -8.000000 2.000000
v 0.172445 -6.000000 2.000000
v 0.172445 -8.000000 0.000000
v 0.172445 -6.000000 0.000000
v 0.172445 -8.000000 -2.000000
v 0.172445 -6.000000 -2.000000
v 0.172445 -8.000000 -4.000000
v 0.172445 -6.000000 -4.000000
v 0.172445 -8.000000 -6.000000
v 0.172445 -6.000000 -6.000000
v 0.172445 -8.000000 -8.000000
v 0.172445 -6.000000 -8.000000
v 0.172444 -4.000000 -8.000000
v 0.172444 -2.000000 -8.000000
v 0.172444 0.000000 -8.000000
v 0.172444 2.000000 -8.000000
v 0.172444 4.000000 -8.000000
v 0.172444 6.000000 -8.000000
v 0.172443 8.000000 -8.000000
v 0.172445 -8.000000 -10.000000
v 0.172445 -6.000000 -10.000000
v 0.172444 -4.000000 -10.000000
v 0.172444 -2.000000 -10.000000
v 0.172444 0.000000 -10.000000
v 0.172444 2.000000 -10.000000
v 0.172444 4.000000 -10.000000
v 0.172444 6.000000 -10.000000
v 0.172443 8.000000 -10.000000
v 0.172445 -8.000000 -12.000000
v 0.172445 -6.000000 -12.000000
v 0.172444 -4.000000 -12.000000
v 0.172444 -2.000000 -12.000000
v 0.172444 0.000000 -12.000000
v 0.172444 2.000000 -12.000000
v 0.172444 4.000000 -12.000000
v 0.172444 6.000000 -12.000000
v 0.172443 8.000000 -12.000000
v 0.172445 -8.000000 -14.000000
v 0.172445 -6.000000 -14.000000
v 0.172445 -8.000000 -16.000000
v 0.172445 -6.000000 -16.000000
v 1.172445 -6.000000 16.000000
v 1.172445 -8.000000 16.000000
v 1.172445 -8.000000 14.000000
v 1.172445 -6.000000 14.000000
v 1.172445 -8.000000 12.000000
v 1.172445 -6.000000 12.000000
v 1.172444 -4.000000 12.000000
v 1.172445 -8.000000 10.000000
v 1.172445 -6.000000 10.000000
v 1.172444 -4.000000 10.000000
v 1.172445 -8.000000 8.000000
v 1.172445 -6.000000 8.000000
v 1.172444 -4.000000 8.000000
v 1.172444 -2.000000 8.000000
v 1.172445 -8.000000 6.000000
v 1.172445 -6.000000 6.000000
v 1.172444 -4.000000 6.000000
v 1.172444 -2.000000 6.000000
v 1.172445 -8.000000 4.000000
v 1.172445 -6.000000 4.000000
v 1.172444 -4.000000 4.000000
v 1.172444 -2.000000 4.000000
v 1.172445 -8.000000 2.000000
v 1.172445 -6.000000 2.000000
v 1.172445 -8.000000 0.000000
v 1.172445 -6.000000 0.000000
v 1.172445 -8.000000 -2.000000
v 1.172445 -6.000000 -2.000000
v 1.172445 -8.000000 -4.000000
v 1.172445 -6.000000 -4.000000
v 1.172445 -8.000000 -6.000000
v 1.172445 -6.000000 -6.000000
v 1.172445 -8.000000 -8.000000
v 1.172445 -6.000000 -8.000000
v 1.172444 -4.000000 -8.000000
v 1.172444 -2.000000 -8.000000
v 1.172444 0.000000 -8.000000
v 1.172444 2.000000 -8.000000
v 1.172444 4.000000 -8.000000
v 1.172444 6.000000 -8.000000
v 1.172443 8.000000 -8.000000
v 1.172445 -8.000000 -10.000000
v 1.172445 -6.000000 -10.000000
v 1.172444 -4.000000 -10.000000
v 1.172444 -2.000000 -10.000000
v 1.172444 0.000000 -10.000000
v 1.172444 2.000000 -10.000000
v 1.172444 4.000000 -10.000000
v 1.172444 6.000000 -10.000000
v 1.172443 8.000000 -10.000000
v 1.172445 -8.000000 -12.000000
v 1.172445 -6.000000 -12.000000
v 1.172444 -4.000000 -12.000000
v 1.172444 -2.000000 -12.000000
v 1.172444 0.000000 -12.000000
v 1.172444 2.000000 -12.000000
v 1.172444 4.000000 -12.000000
v 1.172444 6.000000 -12.000000
v 1.172443 8.000000 -12.000000
v 1.172445 -8.000000 -14.000000
v 1.172445 -6.000000 -14.000000
v 1.172445 -8.000000 -16.000000
v 1.172445 -6.000000 -16.000000
vt 0.388889 0.500000
vt 0.388889 0.468750
vt 0.444444 0.468750
vt 0.444444 0.500000
vt 0.388889 0.437500
vt 0.444444 0.437500
vt 0.388889 0.406250
vt 0.444444 0.406250
vt 0.333333 0.437500
vt 0.333333 0.406250
vt 0.388889 0.375000
vt 0.444444 0.375000
vt 0.333333 0.375000
vt 0.388889 0.343750
vt 0.444444 0.343750
vt 0.333333 0.343750
vt 0.277778 0.375000
vt 0.277778 0.343750
vt 0.388889 0.312500
vt 0.444444 0.312500
vt 0.333333 0.312500
vt 0.277778 0.312500
vt 0.388889 0.281250
vt 0.444444 0.281250
vt 0.388889 0.250000
vt 0.444444 0.250000
vt 0.388889 0.218750
vt 0.444444 0.218750
vt 0.388889 0.187500
vt 0.444444 0.187500
vt 0.388889 0.156250
vt 0.444444 0.156250
vt 0.388889 0.125000
vt 0.444444 0.125000
vt 0.388889 0.093750
vt 0.444444 0.093750
vt 0.333333 0.125000
vt 0.333333 0.093750
vt 0.277778 0.125000
vt 0.277778 0.093750
vt 0.222222 0.125000
vt 0.222222 0.093750
vt 0.166667 0.125000
vt 0.166667 0.093750
vt 0.111111 0.125000
vt 0.111111 0.093750
vt 0.055556 0.125000
vt 0.055556 0.093750
vt 0.000000 0.125000
vt 0.000000 0.093750
vt 0.388889 0.062500
vt 0.444444 0.062500
vt 0.333333 0.062500
vt 0.277778 0.062500
vt 0.222222 0.062500
vt 0.166667 0.062500
vt 0.111111 0.062500
vt 0.055556 0.062500
vt 0.000000 0.062500
vt 0.388889 0.031250
vt 0.444444 0.031250
vt 0.388889 0.000000
vt 0.444444 0.000000
vt 0.444444 0.531250
vt 0.388889 0.531250
vt 0.444444 0.562500
vt 0.388889 0.562500
vt 0.444444 0.593750
vt 0.388889 0.593750
vt 0.333333 0.562500
vt 0.333333 0.593750
vt 0.444444 0.625000
vt 0.388889 0.625000
vt 0.333333 0.625000
vt 0.444444 0.656250
vt 0.388889 0.656250
vt 0.333333 0.656250
vt 0.277778 0.625000
vt 0.277778 0.656250
vt 0.444444 0.687500
vt 0.388889 0.687500
vt 0.333333 0.687500
vt 0.277778 0.687500
vt 0.444444 0.718750
vt 0.388889 0.718750
vt 0.444444 0.750000
vt 0.388889 0.750000
vt 0.444444 0.781250
vt 0.388889 0.781250
vt 0.444444 0.812500
vt 0.388889 0.812500
vt 0.444444 0.843750
vt 0.388889 0.843750
vt 0.444444 0.875000
vt 0.388889 0.875000
vt 0.444444 0.906250
vt 0.388889 0.906250
vt 0.333333 0.875000
vt 0.333333 0.906250
vt 0.277778 0.875000
vt 0.277778 0.906250
vt 0.222222 0.875000
vt 0.222222 0.906250
vt 0.166667 0.875000
vt 0.166667 0.906250
vt 0.111111 0.875000
vt 0.111111 0.906250
vt 0.055556 0.875000
vt 0.055556 0.906250
vt 0.000000 0.875000
vt 0.000000 0.906250
vt 0.444444 0.937500
vt 0.388889 0.937500
vt 0.333333 0.937500
vt 0.277778 0.937500
vt 0.222222 0.937500
vt 0.166667 0.937500
vt 0.111111 0.937500
vt 0.055556 0.937500
vt 0.000000 0.937500
vt 0.444444 0.968750
vt 0.388889 0.968750
vt 0.444444 1.000000
vt 0.388889 1.000000
vt 0.666667 0.437500
vt 0.666667 0.375000
vt 0.763889 0.375000
vt 0.763889 0.437500
vt 0.555556 1.000000
vt 0.500000 1.000000
vt 0.500000 0.750000
vt 0.555556 0.750000
vt 0.763889 0.625000
vt 0.763889 0.687500
vt 0.666667 0.687500
vt 0.666667 0.625000
vt 0.666667 0.406250
vt 0.819444 0.250000
vt 0.791667 0.250000
vt 0.791667 0.000000
vt 0.819444 0.000000
vt 0.666667 1.000000
vt 0.638889 1.000000
vt 0.638889 0.750000
vt 0.666667 0.750000
vt 0.666667 0.187500
vt 0.666667 0.218750
vt 0.444444 0.218750
vt 0.819444 0.500000
vt 0.763889 0.500000
vt 0.763889 0.250000
vt 0.763889 0.750000
vt 0.666667 0.062500
vt 0.666667 0.093750
vt 0.444444 0.093750
vt 0.527778 0.750000
vt 0.500000 0.500000
vt 0.527778 0.500000
vt 0.763889 0.812500
vt 0.666667 0.812500
vt 0.666667 0.250000
vt 0.763889 0.875000
vt 0.666667 0.875000
vt 0.555556 0.500000
vt 0.472222 0.750000
vt 0.472222 0.500000
vt 0.472222 1.000000
vt 0.666667 0.281250
vt 0.666667 0.125000
vt 0.666667 0.468750
vt 0.583333 0.750000
vt 0.583333 0.500000
vt 0.791667 1.000000
vt 0.763889 1.000000
vt 0.791667 0.750000
vt 0.666667 0.312500
vt 0.666667 0.500000
vt 0.875000 0.500000
vt 0.875000 0.250000
vt 0.611111 0.750000
vt 0.611111 0.500000
vt 0.819444 0.750000
vt 0.819444 1.000000
vt 0.666667 0.343750
vt 0.444444 0.343750
vt 0.666667 0.156250
vt 0.638889 0.500000
vt 0.666667 0.000000
vt 0.763889 0.000000
vt 0.763889 0.062500
vt 0.763889 0.125000
vt 0.875000 0.000000
vt 0.763889 0.187500
vt 0.666667 0.031250
vt 0.763889 0.562500
vt 0.666667 0.562500
vt 0.763889 0.312500
vt 0.611111 1.000000
vn -1.000000 -0.000000 0.000000
vn 1.000000 0.000000 0.000000
vn 0.000000 0.000000 1.000000
vn 0.000000 0.000000 -1.000000
vn 0.000000 -1.000000 0.000000
vn 0.000000 1.000000 0.000000
usemtl Material.001
s off
f 1/1/1 4/2/1 3/3/1 2/4/1
f 4/2/1 6/5/1 5/6/1 3/3/1
f 6/5/1 9/7/1 8/8/1 5/6/1
f 7/9/1 10/10/1 9/7/1 6/5/1
f 9/7/1 12/11/1 11/12/1 8/8/1
f 10/10/1 13/13/1 12/11/1 9/7/1
f 12/11/1 16/14/1 15/15/1 11/12/1
f 13/13/1 17/16/1 16/14/1 12/11/1
f 14/17/1 18/18/1 17/16/1 13/13/1
f 16/14/1 20/19/1 19/20/1 15/15/1
f 17/16/1 21/21/1 20/19/1 16/14/1
f 18/18/1 22/22/1 21/21/1 17/16/1
f 20/19/1 24/23/1 23/24/1 19/20/1
f 24/23/1 26/25/1 25/26/1 23/24/1
f 26/25/1 28/27/1 27/28/1 25/26/1
f 28/27/1 30/29/1 29/30/1 27/28/1
f 30/29/1 32/31/1 31/32/1 29/30/1
f 32/31/1 34/33/1 33/34/1 31/32/1
f 34/33/1 43/35/1 42/36/1 33/34/1
f 35/37/1 44/38/1 43/35/1 34/33/1
f 36/39/1 45/40/1 44/38/1 35/37/1
f 37/41/1 46/42/1 45/40/1 36/39/1
f 38/43/1 47/44/1 46/42/1 37/41/1
f 39/45/1 48/46/1 47/44/1 38/43/1
f 40/47/1 49/48/1 48/46/1 39/45/1
f 41/49/1 50/50/1 49/48/1 40/47/1
f 43/35/1 52/51/1 51/52/1 42/36/1
f 44/38/1 53/53/1 52/51/1 43/35/1
f 45/40/1 54/54/1 53/53/1 44/38/1
f 46/42/1 55/55/1 54/54/1 45/40/1
f 47/44/1 56/56/1 55/55/1 46/42/1
f 48/46/1 57/57/1 56/56/1 47/44/1
f 49/48/1 58/58/1 57/57/1 48/46/1
f 50/50/1 59/59/1 58/58/1 49/48/1
f 52/51/1 61/60/1 60/61/1 51/52/1
f 61/60/1 63/62/1 62/63/1 60/61/1
f 64/1/2 65/4/2 66/64/2 67/65/2
f 67/65/2 66/64/2 68/66/2 69/67/2
f 69/67/2 68/66/2 71/68/2 72/69/2
f 70/70/2 69/67/2 72/69/2 73/71/2
f 72/69/2 71/68/2 74/72/2 75/73/2
f 73/71/2 72/69/2 75/73/2 76/74/2
f 75/73/2 74/72/2 78/75/2 79/76/2
f 76/74/2 75/73/2 79/76/2 80/77/2
f 77/78/2 76/74/2 80/77/2 81/79/2
f 79/76/2 78/75/2 82/80/2 83/81/2
f 80/77/2 79/76/2 83/81/2 84/82/2
f 81/79/2 80/77/2 84/82/2 85/83/2
f 83/81/2 82/80/2 86/84/2 87/85/2
f 87/85/2 86/84/2 88/86/2 89/87/2
f 89/87/2 88/86/2 90/88/2 91/89/2
f 91/89/2 90/88/2 92/90/2 93/91/2
f 93/91/2 92/90/2 94/92/2 95/93/2
f 95/93/2 94/92/2 96/94/2 97/95/2
f 97/95/2 96/94/2 105/96/2 106/97/2
f 98/98/2 97/95/2 106/97/2 107/99/2
f 99/100/2 98/98/2 107/99/2 108/101/2
f 100/102/2 99/100/2 108/101/2 109/103/2
f 101/104/2 100/102/2 109/103/2 110/105/2
f 102/106/2 101/104/2 110/105/2 111/107/2
f 103/108/2 102/106/2 111/107/2 112/109/2
f 104/110/2 103/108/2 112/109/2 113/111/2
f 106/97/2 105/96/2 114/112/2 115/113/2
f 107/99/2 106/97/2 115/113/2 116/114/2
f 108/101/2 107/99/2 116/114/2 117/115/2
f 109/103/2 108/101/2 117/115/2 118/116/2
f 110/105/2 109/103/2 118/116/2 119/117/2
f 111/107/2 110/105/2 119/117/2 120/118/2
f 112/109/2 111/107/2 120/118/2 121/119/2
f 113/111/2 112/109/2 121/119/2 122/120/2
f 115/113/2 114/112/2 123/121/2 124/122/2
f 124/122/2 123/121/2 125/123/2 126/124/2
f 41/125/3 40/126/3 103/127/3 104/128/3
f 21/129/4 22/130/4 85/131/4 84/132/4
f 55/133/4 56/134/4 119/135/4 118/136/4
f 33/126/5 42/137/5 105/8/5 96/12/5
f 22/138/6 18/139/6 81/140/6 85/141/6
f 6/142/6 4/143/6 67/144/6 69/145/6
f 19/146/5 23/147/5 86/148/5 82/30/5
f 7/149/3 6/150/3 69/151/3 70/138/3
f 56/134/4 57/152/4 120/145/4 119/135/4
f 5/153/5 8/154/5 71/155/5 68/52/5
f 24/156/6 20/131/6 83/157/6 87/158/6
f 57/152/4 58/159/4 121/160/4 120/145/4
f 23/147/5 25/161/5 88/26/5 86/148/5
f 58/159/4 59/162/4 122/163/4 121/160/4
f 26/132/6 24/156/6 87/158/6 89/164/6
f 10/165/6 7/86/6 70/4/6 73/166/6
f 59/130/6 50/167/6 113/165/6 122/131/6
f 25/161/5 27/168/5 90/24/5 88/26/5
f 8/154/5 11/169/5 74/34/5 71/155/5
f 51/125/5 60/170/5 123/3/5 114/6/5
f 28/171/6 26/132/6 89/164/6 91/172/6
f 61/173/6 52/174/6 115/152/6 124/175/6
f 27/168/5 29/176/5 92/20/5 90/24/5
f 60/170/5 62/177/5 125/4/5 123/3/5
f 13/131/6 10/165/6 73/166/6 76/157/6
f 62/178/4 63/149/4 126/138/4 125/179/4
f 30/180/6 28/171/6 91/172/6 93/181/6
f 14/182/3 13/152/3 76/150/3 77/149/3
f 63/183/6 61/173/6 124/175/6 126/182/6
f 29/176/5 31/184/5 94/185/5 92/20/5
f 11/169/5 15/186/5 78/32/5 74/34/5
f 32/144/6 30/180/6 93/181/6 95/187/6
f 50/167/6 41/123/6 104/86/6 113/165/6
f 31/184/5 33/126/5 96/12/5 94/185/5
f 42/137/5 51/125/5 114/6/5 105/8/5
f 34/145/6 32/144/6 95/187/6 97/177/6
f 35/153/3 34/188/3 97/189/3 98/190/3
f 18/139/6 14/151/6 77/189/6 81/140/6
f 52/128/4 53/150/4 116/177/4 115/125/4
f 36/169/3 35/153/3 98/190/3 99/191/3
f 15/186/5 19/146/5 82/30/5 78/32/5
f 1/179/3 2/138/3 65/141/3 64/192/3
f 37/146/3 36/169/3 99/191/3 100/193/3
f 2/188/5 3/194/5 66/61/5 65/63/5
f 53/150/4 54/195/4 117/196/4 116/177/4
f 38/161/3 37/146/3 100/193/3 101/151/3
f 39/176/3 38/161/3 101/151/3 102/197/3
f 20/198/4 21/129/4 84/132/4 83/180/4
f 4/143/6 1/198/6 64/180/6 67/144/6
f 54/195/4 55/133/4 118/136/4 117/196/4
f 40/126/3 39/176/3 102/197/3 103/127/3
f 3/194/5 5/153/5 68/52/5 66/61/5
